<svg width="472" height="472" viewBox="0 0 472 472" fill="none" xmlns="http://www.w3.org/2000/svg">
<g clip-path="url(#clip0_56_2)">
<path d="M0 236C0 105.661 105.661 0 236 0V0C366.339 0 472 105.661 472 236V236C472 366.339 366.339 472 236 472V472C105.661 472 0 366.339 0 236V236Z" fill="white"/>
<circle cx="236" cy="236" r="236" fill="url(#paint0_linear_56_2)"/>
<path d="M122.433 635.6C109 635.6 97.0834 632.133 86.6834 625.2C76.7167 618.267 71.9501 607.867 72.3834 594C73.2501 569.733 74.9834 542.867 77.5834 513.4C80.6167 483.933 84.0834 454.033 87.9834 423.7C91.8834 392.933 95.7834 363.467 99.6834 335.3C104.017 307.133 107.917 282 111.383 259.9C103.583 259.033 96.0001 258.383 88.6334 257.95C81.2667 257.517 74.5501 257.3 68.4834 257.3C50.2834 257.3 33.8167 259.033 19.0834 262.5C4.7834 265.967 -7.34993 272.033 -17.3166 280.7C-17.3166 253.4 -15.1499 231.3 -10.8166 214.4C-6.04993 197.067 2.40007 184.5 14.5334 176.7C27.1001 168.9 45.3001 165 69.1334 165C86.4667 165 105.75 166.517 126.983 169.55C148.65 172.15 170.533 174.967 192.633 178C214.733 181.033 235.317 182.55 254.383 182.55C269.983 182.55 283.85 181.033 295.983 178C308.55 174.967 318.083 169.55 324.583 161.75C334.117 164.783 341.483 171.5 346.683 181.9C351.883 191.867 354.483 202.917 354.483 215.05C354.483 225.883 352.1 236.5 347.333 246.9C342.567 256.867 334.983 265.317 324.583 272.25C314.183 278.75 300.1 282 282.333 282C274.1 282 263.917 281.35 251.783 280.05C240.083 278.317 227.517 276.583 214.083 274.85C209.317 300.85 204.333 332.05 199.133 368.45C194.367 404.417 190.25 443.2 186.783 484.8C183.75 526.4 181.8 568.65 180.933 611.55C173.133 619.783 163.817 625.85 152.983 629.75C142.583 633.65 132.4 635.6 122.433 635.6Z" fill="black"/>
</g>
<defs>
<linearGradient id="paint0_linear_56_2" x1="60" y1="455.5" x2="394.5" y2="35.5" gradientUnits="userSpaceOnUse">
<stop stop-color="#FFAC38"/>
<stop offset="1" stop-color="#D4B07E"/>
</linearGradient>
<clipPath id="clip0_56_2">
<path d="M0 236C0 105.661 105.661 0 236 0V0C366.339 0 472 105.661 472 236V236C472 366.339 366.339 472 236 472V472C105.661 472 0 366.339 0 236V236Z" fill="white"/>
</clipPath>
</defs>
</svg>
